<svg xmlns="http://www.w3.org/2000/svg" viewBox="0 0 512 512">
  <!-- الشاشة -->
  <path d="M430 392.5H82c-16.5 0-30-13.5-30-30v-220c0-16.5 13.5-30 30-30h348c16.5 0 30 13.5 30 30v220c0 16.5-13.5 30-30 30z" fill="#2f4858"/>
  <path d="M430 112.5H82c-16.5 0-30 13.5-30 30v220c0 16.5 13.5 30 30 30h348c16.5 0 30-13.5 30-30v-220c0-16.5-13.5-30-30-30zm0 250H82v-220h348v220z" fill="#2f4858"/>
  
  <!-- الكتاب المفتوح داخل الشاشة -->
  <g>
    <path d="M380 350H132c-5.5 0-10-4.5-10-10V200c0-5.5 4.5-10 10-10h248c5.5 0 10 4.5 10 10v140c0 5.5-4.5 10-10 10z" fill="#f2e8dc"/>
    <path d="M256 350c-2.6 0-5.2-1-7.1-2.9-1.9-1.9-2.9-4.4-2.9-7.1V200c0-5.5 4.5-10 10-10s10 4.5 10 10v140c0 2.6-1 5.2-2.9 7.1-1.9 1.9-4.5 2.9-7.1 2.9z" fill="#2f4858"/>
    <path d="M256 350h-124c-5.5 0-10-4.5-10-10s4.5-10 10-10h124c5.5 0 10 4.5 10 10s-4.5 10-10 10z" fill="#2f4858"/>
    <path d="M380 350H256c-5.5 0-10-4.5-10-10s4.5-10 10-10h124c5.5 0 10 4.5 10 10s-4.5 10-10 10z" fill="#2f4858"/>
    
    <!-- تفاصيل الكتاب -->
    <path d="M220 320h-70c-1.1 0-2-.9-2-2s.9-2 2-2h70c1.1 0 2 .9 2 2s-.9 2-2 2z" fill="#c19a6b"/>
    <path d="M220 280h-70c-1.1 0-2-.9-2-2s.9-2 2-2h70c1.1 0 2 .9 2 2s-.9 2-2 2z" fill="#c19a6b"/>
    <path d="M220 240h-70c-1.1 0-2-.9-2-2s.9-2 2-2h70c1.1 0 2 .9 2 2s-.9 2-2 2z" fill="#c19a6b"/>
    
    <path d="M362 320h-70c-1.1 0-2-.9-2-2s.9-2 2-2h70c1.1 0 2 .9 2 2s-.9 2-2 2z" fill="#c19a6b"/>
    <path d="M362 280h-70c-1.1 0-2-.9-2-2s.9-2 2-2h70c1.1 0 2 .9 2 2s-.9 2-2 2z" fill="#c19a6b"/>
    <path d="M362 240h-70c-1.1 0-2-.9-2-2s.9-2 2-2h70c1.1 0 2 .9 2 2s-.9 2-2 2z" fill="#c19a6b"/>
  </g>
</svg>