<svg width="800" height="800" viewBox="0 0 800 800" xmlns="http://www.w3.org/2000/svg">
  <defs>
    <pattern id="islamic-border" patternUnits="userSpaceOnUse" width="800" height="800">
      <!-- زخارف الحدود الإسلامية -->
      <path fill="none" stroke="#8a6e3b" stroke-width="1" opacity="0.4" d="
        M0,0 L800,0 L800,800 L0,800 Z
        M20,20 L780,20 L780,780 L20,780 Z
      "/>
      
      <!-- زخارف الزوايا -->
      <path fill="none" stroke="#8a6e3b" stroke-width="1" opacity="0.4" d="
        M0,0 Q100,50 200,0 M0,0 Q50,100 0,200
        M800,0 Q700,50 600,0 M800,0 Q750,100 800,200
        M0,800 Q100,750 200,800 M0,800 Q50,700 0,600
        M800,800 Q700,750 600,800 M800,800 Q750,700 800,600
      "/>
      
      <!-- زخارف إسلامية في الزوايا -->
      <path fill="none" stroke="#8a6e3b" stroke-width="1" opacity="0.4" d="
        M50,50 A30,30 0 0,1 80,80 A30,30 0 0,1 50,50 Z
        M750,50 A30,30 0 0,0 720,80 A30,30 0 0,0 750,50 Z
        M50,750 A30,30 0 0,0 80,720 A30,30 0 0,0 50,750 Z
        M750,750 A30,30 0 0,1 720,720 A30,30 0 0,1 750,750 Z
      "/>
      
      <!-- زخارف إسلامية في المنتصف -->
      <circle cx="400" cy="50" r="20" fill="none" stroke="#8a6e3b" stroke-width="1" opacity="0.4"/>
      <circle cx="400" cy="750" r="20" fill="none" stroke="#8a6e3b" stroke-width="1" opacity="0.4"/>
      <circle cx="50" cy="400" r="20" fill="none" stroke="#8a6e3b" stroke-width="1" opacity="0.4"/>
      <circle cx="750" cy="400" r="20" fill="none" stroke="#8a6e3b" stroke-width="1" opacity="0.4"/>
    </pattern>
  </defs>
  <rect width="800" height="800" fill="url(#islamic-border)"/>
</svg>